<?xml version="1.0" encoding="iso-8859-1"?>
<!-- Uploaded to: SVG Repo, www.svgrepo.com, Generator: SVG Repo Mixer Tools -->
<svg height="800px" width="800px" version="1.1" id="Layer_1" xmlns="http://www.w3.org/2000/svg" xmlns:xlink="http://www.w3.org/1999/xlink" 
	 viewBox="0 0 512 512" xml:space="preserve">
<g transform="translate(1 1)">
	<path style="fill:#FFDD09;" d="M320.085,168.22c-33.844,0-39.051,11.281-65.085,29.505c12.149,8.678,22.563,19.092,32.108,30.373
		c17.356-10.414,19.959-16.488,41.654-16.488c62.481,0,130.169,50.332,130.169,112.814s-67.688,112.814-130.169,112.814
		c-21.695,0-24.298-6.075-41.654-16.488c-12.149-7.81-23.431-17.356-32.108-29.505c-13.885-19.091-21.695-41.654-21.695-66.82
		s7.81-47.729,21.695-65.953c-8.678-12.149-19.092-21.695-32.108-29.505c-20.827,26.034-32.976,59.01-32.976,95.458
		s12.149,69.424,32.976,96.325c9.546,11.281,19.959,21.695,32.108,30.373c26.034,18.224,31.241,29.505,65.085,29.505
		c85.912,0,156.203-70.292,156.203-156.203S405.997,168.22,320.085,168.22"/>
	<path style="fill:#1CD759;" d="M355.664,168.22h-45.125l-59.878-86.78l30.373-52.068h105.003l29.505,52.068L355.664,168.22z"/>
	<path style="fill:#15A143;" d="M405.997,29.373h-21.695l30.373,52.068l-59.878,86.78h16.488l69.424-86.78L405.997,29.373z"/>
	<path style="fill:#FFDD09;" d="M222.892,420.749c-17.356,10.414-37.315,16.488-59.01,16.488
		c-62.481,0-112.814-50.332-112.814-112.814S101.4,211.61,163.881,211.61c21.695,0,41.654,6.075,59.01,16.488
		c12.149,7.81,23.431,17.356,32.108,29.505c13.885,18.224,21.695,41.654,21.695,65.953c0,24.298-7.81,47.729-21.695,65.953
		c8.678,12.149,19.092,21.695,32.108,29.505c20.827-25.166,32.976-58.142,32.976-94.59S307.936,255,287.108,228.098
		c-9.546-11.281-19.959-21.695-32.108-30.373c-26.034-18.224-57.275-29.505-91.119-29.505c-85.912,0-156.203,70.292-156.203,156.203
		s70.292,156.203,156.203,156.203c33.844,0,65.085-11.281,91.119-29.505C242.851,442.444,232.437,432.031,222.892,420.749"/>
	<path style="fill:#FD9808;" d="M346.119,168.22c-4.339,0-8.678,0-13.885,0.868c80.705,6.075,144.054,73.763,144.054,155.336
		s-63.349,149.261-144.054,155.336c4.339,0,8.678,0.868,13.885,0.868c85.912,0,156.203-70.292,156.203-156.203
		S432.031,168.22,346.119,168.22"/>
	<path style="fill:#FFFFFF;" d="M163.881,480.627c4.339,0,8.678,0,13.885-0.868c-80.705-6.075-144.054-73.763-144.054-155.336
		s63.349-149.261,144.054-155.336c-5.207-0.868-9.546-0.868-13.885-0.868c-85.912,0-156.203,70.292-156.203,156.203
		S77.969,480.627,163.881,480.627"/>
	<path d="M372.153,176.898h-52.068c-2.603,0-5.207-0.868-6.942-3.471l-69.424-86.78c-2.603-2.603-2.603-6.942-0.868-10.414
		l34.712-52.068c2.603-1.736,5.207-3.471,7.81-3.471h121.492c2.603,0,5.207,1.736,6.942,3.471l34.712,52.068
		c1.736,3.471,1.736,6.942-0.868,10.414l-69.424,86.78C377.359,176.031,374.756,176.898,372.153,176.898z M324.424,159.542h43.39
		l62.481-78.969l-27.77-42.522H289.712l-28.637,42.522L324.424,159.542z"/>
	<path d="M441.576,90.119H250.661c-5.207,0-8.678-3.471-8.678-8.678s3.471-8.678,8.678-8.678h190.915
		c5.207,0,8.678,3.471,8.678,8.678S446.783,90.119,441.576,90.119z"/>
	<path d="M398.186,90.119c-2.603,0-4.339-0.868-6.075-2.603l-52.068-52.068c-3.471-3.471-3.471-8.678,0-12.149s8.678-3.471,12.149,0
		l52.068,52.068c3.471,3.471,3.471,8.678,0,12.149C402.525,89.251,400.79,90.119,398.186,90.119z"/>
	<path d="M294.051,90.119c-2.603,0-4.339-0.868-6.075-2.603c-3.471-3.471-3.471-8.678,0-12.149l52.068-52.068
		c3.471-3.471,8.678-3.471,12.149,0c3.471,3.471,3.471,8.678,0,12.149l-52.068,52.068C298.39,89.251,296.654,90.119,294.051,90.119z
		"/>
	<path d="M346.119,142.186c-2.603,0-4.339-0.868-6.075-2.603l-52.068-52.068c-3.471-3.471-3.471-8.678,0-12.149
		c3.471-3.471,8.678-3.471,12.149,0l52.068,52.068c3.471,3.471,3.471,8.678,0,12.149
		C350.458,141.319,348.722,142.186,346.119,142.186z"/>
	<path d="M346.119,142.186c-2.603,0-4.339-0.868-6.075-2.603c-3.471-3.471-3.471-8.678,0-12.149l52.068-52.068
		c3.471-3.471,8.678-3.471,12.149,0c3.471,3.471,3.471,8.678,0,12.149l-52.068,52.068
		C350.458,141.319,348.722,142.186,346.119,142.186z"/>
	<path d="M398.186,142.186H294.051c-5.207,0-8.678-3.471-8.678-8.678c0-5.207,3.471-8.678,8.678-8.678h104.136
		c5.207,0,8.678,3.471,8.678,8.678C406.864,138.715,403.393,142.186,398.186,142.186z"/>
	<path d="M163.881,489.305C72.763,489.305-1,415.542-1,324.424c0-32.976,9.546-64.217,27.769-91.986
		c2.603-4.339,7.81-5.207,12.149-2.603c4.339,2.603,5.207,7.81,2.603,12.149c-16.488,25.166-25.166,52.936-25.166,82.441
		c0,81.573,65.953,147.525,147.525,147.525c26.902,0,52.936-7.81,76.366-21.695c-6.942-6.075-13.017-12.149-19.092-19.092
		c-17.356,9.546-37.315,14.753-57.275,14.753c-66.82,0-121.492-54.671-121.492-121.492s54.671-121.492,121.492-121.492
		c22.563,0,44.258,6.075,63.349,18.224c13.885,8.678,25.166,19.092,34.712,32.108c15.62,20.827,23.431,45.125,23.431,71.159
		c0,23.431-6.942,45.993-19.959,65.953c5.207,6.942,12.149,13.017,19.092,18.224c17.356-25.166,26.902-53.803,26.902-84.176
		c0-32.976-10.414-64.217-31.241-90.251c-8.678-11.281-19.092-20.827-30.373-28.637c-25.166-19.091-54.671-28.637-85.912-28.637
		c-26.034,0-51.2,6.942-73.763,19.959c-4.339,2.603-9.546,0.868-12.149-3.471c-2.603-4.339-0.868-9.546,3.471-12.149
		c25.166-14.753,53.803-21.695,82.441-21.695c34.712,0,67.688,10.414,96.325,31.241c13.017,9.546,24.298,19.959,33.844,32.108
		c22.563,29.505,34.712,64.217,34.712,101.532s-12.149,72.027-34.712,101.532c-2.603,3.471-7.81,4.339-11.281,1.736
		c-13.885-8.678-25.166-19.092-34.712-32.108c-2.603-3.471-2.603-6.942,0-10.414c13.017-17.356,19.959-39.051,19.959-60.746
		s-6.942-43.39-19.959-61.614c-7.81-11.281-18.224-19.959-29.505-26.902c-16.488-10.414-35.58-15.62-54.671-15.62
		c-57.275,0-104.136,46.861-104.136,104.136s46.861,104.136,104.136,104.136c19.092,0,38.183-5.207,54.671-15.62
		c3.471-2.603,8.678-1.736,11.281,1.736c8.678,11.281,19.092,20.827,30.373,28.637c2.603,1.736,3.471,4.339,3.471,6.942
		s-1.736,5.207-3.471,6.942C231.569,478.892,198.593,489.305,163.881,489.305z"/>
	<path d="M346.119,489.305c-34.712,0-67.688-10.414-96.325-31.241c-13.017-9.546-24.298-19.959-33.844-32.108
		c-22.563-29.505-34.712-64.217-34.712-101.532s12.149-72.027,34.712-101.532c2.603-3.471,7.81-4.339,11.281-1.736
		c13.885,8.678,25.166,19.092,34.712,32.108c2.603,3.471,2.603,6.942,0,10.414c-13.017,17.356-19.959,39.051-19.959,60.746
		s6.942,43.39,19.959,61.614c7.81,11.281,18.224,19.959,29.505,26.902c16.488,10.414,35.58,15.62,54.671,15.62
		c57.275,0,104.136-46.861,104.136-104.136s-46.861-104.136-104.136-104.136c-19.092,0-38.183,5.207-54.671,15.62
		c-3.471,2.603-8.678,1.736-11.281-1.736c-8.678-11.281-19.092-20.827-30.373-28.637c-2.603-1.736-3.471-4.339-3.471-6.942
		c0-2.603,1.736-5.207,3.471-6.942c28.637-21.695,61.614-32.108,96.325-32.108c91.119,0,164.881,73.763,164.881,164.881
		S437.237,489.305,346.119,489.305z M225.495,240.247c-17.356,25.166-26.902,53.803-26.902,84.176
		c0,32.976,10.414,64.217,31.241,90.251c8.678,11.281,19.092,20.827,30.373,28.637c25.166,19.092,54.671,28.637,85.912,28.637
		c81.573,0,147.525-65.953,147.525-147.525s-65.953-147.525-147.525-147.525c-26.902,0-52.936,7.81-76.366,21.695
		c6.942,6.075,13.017,12.149,19.092,19.092c17.356-9.546,37.315-14.753,57.275-14.753c66.82,0,121.492,54.671,121.492,121.492
		s-54.671,121.492-121.492,121.492c-22.563,0-44.258-6.075-63.349-18.224c-13.885-8.678-25.166-19.092-34.712-32.108
		c-15.62-20.827-23.431-45.125-23.431-71.159c0-23.431,6.942-45.993,19.959-65.953C238.512,251.529,232.437,245.454,225.495,240.247
		z"/>
	<path d="M68.424,211.61c0-5.207-3.471-8.678-8.678-8.678s-8.678,3.471-8.678,8.678s3.471,8.678,8.678,8.678
		S68.424,216.817,68.424,211.61"/>
</g>
</svg>